<?xml version="1.0" encoding="UTF-8" standalone="no"?>
<svg
   height="32"
   viewBox="0 0 32 32"
   width="32"
   version="1.1"
   id="svg4"
   sodipodi:docname="shop.svg"
   inkscape:version="1.2.2 (732a01da63, 2022-12-09)"
   inkscape:export-filename="aim.png"
   inkscape:export-xdpi="144"
   inkscape:export-ydpi="144"
   xmlns:inkscape="http://www.inkscape.org/namespaces/inkscape"
   xmlns:sodipodi="http://sodipodi.sourceforge.net/DTD/sodipodi-0.dtd"
   xmlns="http://www.w3.org/2000/svg"
   xmlns:svg="http://www.w3.org/2000/svg">
  <defs
     id="defs8" />
  <sodipodi:namedview
     id="namedview6"
     pagecolor="#505050"
     bordercolor="#ffffff"
     borderopacity="1"
     inkscape:showpageshadow="0"
     inkscape:pageopacity="0"
     inkscape:pagecheckerboard="1"
     inkscape:deskcolor="#505050"
     showgrid="true"
     inkscape:zoom="11.313708"
     inkscape:cx="-0.44194174"
     inkscape:cy="13.479223"
     inkscape:window-width="1920"
     inkscape:window-height="1009"
     inkscape:window-x="-8"
     inkscape:window-y="-8"
     inkscape:window-maximized="1"
     inkscape:current-layer="svg4">
    <inkscape:grid
       type="xygrid"
       id="grid291"
       spacingx="1"
       spacingy="1"
       empspacing="4" />
  </sodipodi:namedview>
  <path
     id="path396"
     style="color:#000000;fill:#ff5555;stroke-linecap:round;stroke-linejoin:round;paint-order:markers stroke fill;stroke:#800000;stroke-opacity:1;stroke-width:2;stroke-dasharray:none"
     d="M 16 1 A 1 1 0 0 0 15 2 L 15 5.046875 C 9.7329859 5.5244338 5.5244338 9.7329859 5.046875 15 L 2 15 A 1 1 0 0 0 1 16 A 1 1 0 0 0 2 17 L 5.046875 17 C 5.5244338 22.267014 9.7329859 26.475566 15 26.953125 L 15 30 A 1 1 0 0 0 16 31 A 1 1 0 0 0 17 30 L 17 26.953125 C 22.267014 26.475566 26.475566 22.267014 26.953125 17 L 30 17 A 1 1 0 0 0 31 16 A 1 1 0 0 0 30 15 L 26.953125 15 C 26.475566 9.7329859 22.267014 5.5244338 17 5.046875 L 17 2 A 1 1 0 0 0 16 1 z M 16 7 C 20.982397 7 25 11.017603 25 16 C 25 20.982397 20.982397 25 16 25 C 11.017603 25 7 20.982397 7 16 C 7 11.017603 11.017603 7 16 7 z " />
  <circle
     style="font-variation-settings:normal;opacity:1;fill:#ff5757;fill-opacity:1;stroke:#800000;stroke-width:2;stroke-linecap:round;stroke-linejoin:round;stroke-miterlimit:4;stroke-dasharray:none;stroke-dashoffset:0;stroke-opacity:1;paint-order:markers stroke fill;stop-color:#000000;stop-opacity:1"
     id="path1854"
     cx="16"
     cy="16"
     r="1" />
  <rect
     style="fill:#ffdd55;fill-opacity:1;stroke:#a0892c;stroke-width:2;stroke-linecap:round;stroke-linejoin:round;stroke-dasharray:none;paint-order:stroke markers fill;stop-color:#000000;stroke-opacity:1"
     id="rect289"
     width="30"
     height="30"
     x="1"
     y="1" />
  <text
     xml:space="preserve"
     style="font-size:13.3333px;line-height:normal;font-family:Consolas;-inkscape-font-specification:'Consolas, Normal';text-decoration-color:#000000;fill:#ffdd55;fill-opacity:1;stroke:#a0892c;stroke-width:2;stroke-linecap:round;stroke-linejoin:round;stroke-dasharray:none;stroke-opacity:1;paint-order:stroke markers fill;stop-color:#000000"
     x="1.8151071"
     y="20.330736"
     id="text6984"><tspan
       sodipodi:role="line"
       id="tspan6982"
       x="1.8151071"
       y="20.330736"
       style="font-size:13.3333px">shop</tspan></text>
</svg>
