<svg height="1200" viewBox="0 0 120 1200" width="120" xmlns="http://www.w3.org/2000/svg"><g stroke-width="6"><path d="m0 0h120v1200h-120z" fill="#e6e6e6"/><g fill="#fff"><path d="m5 5h110v110h-110z"/><path d="m5 125h110v110h-110z"/><path d="m5 245h110v110h-110z"/><path d="m5 365h110v110h-110z"/><path d="m5 485v110h110v-110zm5 5h100v100h-100z"/><path d="m5 605h110v110h-110z"/><path d="m5 725h110v110h-110z"/><path d="m5 845h110v110h-110z"/><path d="m5 965h110v110h-110z"/><path d="m5 1085h110v110h-110z"/></g><g fill="#e6e6e6"><path d="m105 130h5v5h-5z"/><path d="m10 130h5v5h-5z"/><path d="m105 225h5v5h-5z"/><path d="m10 225h5v5h-5z"/><path d="m10 260v-10h10v5h-5v5z"/><path d="m110 260v-10h-10v5h5v5z"/><path d="m10 340v10h10v-5h-5v-5z"/><path d="m110 340v10h-10v-5h5v-5z"/></g><path d="m30 390v60h60v-60zm5 5h50v50h-50z" fill="#f2f2f2"/></g><g fill="#e6e6e6"><path d="m5 915h45v5h-45z"/><path d="m45 920h5v20h-5z"/><path d="m50 935h65v5h-65z"/><path d="m60 845h5v45h-5z"/><path d="m5 885h55v5h-55z"/><path d="m65 865h50v5h-50z"/><path d="m55 890h5v15h-5z"/><path d="m60 900h40v5h-40z"/><path d="m95 905h5v30h-5z"/><path d="m50 940h5v15h-5z"/><path d="m5 655h110v10h-110z"/><path d="m5 795h110v10h-110z"/><path d="m5 755h110v10h-110z"/><path d="m65 965v110h-10v-110z"/><path d="m45 1085v110h-10v-110z"/><path d="m85 1085v110h-10v-110z"/></g></svg>